<?xml version="1.0" encoding="utf-8"?>
<!-- Generator: Adobe Illustrator 16.0.0, SVG Export Plug-In . SVG Version: 6.00 Build 0)  -->
<!DOCTYPE svg PUBLIC "-//W3C//DTD SVG 1.1//EN" "http://www.w3.org/Graphics/SVG/1.1/DTD/svg11.dtd">
<svg version="1.1" id="Layer_1" xmlns="http://www.w3.org/2000/svg" xmlns:xlink="http://www.w3.org/1999/xlink" x="0px" y="0px"
	 width="368.998px" height="70.6px" viewBox="0 0 368.998 70.6" enable-background="new 0 0 368.998 70.6" xml:space="preserve">
<polygon fill="#CDB959" points="44,0 29.9,64 15.9,0 0,0 15.9,70.599 31.8,70.599 47.7,0 "/>
<rect x="76.599" fill="#CDB959" width="15.9" height="70.6"/>
<polygon fill="#CDB959" points="124,0 124,2.9 139,2.9 139,70.599 154.899,70.599 154.899,2.9 169.799,2.9 169.799,0 "/>
<path fill="#CDB959" d="M243.398,70.6h-3.4V60.1l-26.899-27v37.5h-15.9V18.1c0-2.4,0.583-4.7,1.75-6.9
	c1.166-2.2,2.783-4.116,4.851-5.75c2.065-1.633,4.516-2.95,7.35-3.95c2.833-1,5.915-1.5,9.25-1.5c3.133,0,6.1,0.484,8.9,1.45
	c2.801,0.967,5.25,2.267,7.35,3.9c2.1,1.634,3.75,3.55,4.951,5.75c1.199,2.2,1.799,4.534,1.799,7V70.6z M239.998,42.3V18.1
	c0-2.266-0.584-4.35-1.75-6.25c-1.167-1.9-2.699-3.5-4.6-4.8s-4.017-2.316-6.35-3.05c-2.334-0.733-4.635-1.1-6.9-1.1
	c-2.734,0-4.634,0.617-5.7,1.85c-1.066,1.234-1.6,2.917-1.6,5.05v5.7L239.998,42.3z"/>
<polygon fill="#CDB959" points="308.298,70.6 292.398,70.6 276.498,0 292.398,0 306.398,64 320.498,0 324.198,0 "/>
<rect x="353.099" fill="#CDB959" width="15.899" height="70.6"/>
<rect fill="none" width="368.998" height="70.6"/>
</svg>
